<?xml version="1.0" standalone="no"?>
<!DOCTYPE svg PUBLIC "-//W3C//DTD SVG 20010904//EN"
 "http://www.w3.org/TR/2001/REC-SVG-20010904/DTD/svg10.dtd">
<svg version="1.0" xmlns="http://www.w3.org/2000/svg"
 width="4494.000000pt" height="4383.000000pt" viewBox="0 0 4494.000000 4383.000000"
 preserveAspectRatio="xMidYMid meet">

<g transform="translate(0.000000,4383.000000) scale(0.100000,-0.100000)"
fill="#000000" stroke="none">
<path d="M31045 42974 c-1835 -166 -3951 -1219 -5435 -2704 -1178 -1179 -2090
-2781 -2484 -4365 -214 -861 -274 -1718 -164 -2352 18 -106 23 -122 42 -127
11 -2 68 -12 126 -20 351 -52 782 -36 1255 44 1175 200 2488 816 3567 1672
571 453 1032 925 1509 1548 991 1292 1654 2843 1873 4380 61 428 80 729 73
1177 -5 351 -10 404 -48 636 l-22 127 -71 -1 c-39 -1 -138 -7 -221 -15z"/>
<path d="M30250 32910 c-932 -57 -1888 -266 -3004 -657 -346 -121 -678 -246
-1316 -498 -878 -346 -1220 -471 -1554 -570 -749 -220 -1196 -234 -1898 -59
-424 106 -765 228 -1883 677 -642 257 -970 382 -1328 503 -672 227 -1266 372
-1837 449 -485 65 -1132 72 -1710 19 -2606 -237 -5025 -1527 -6751 -3600 -767
-920 -1383 -1964 -1848 -3127 -520 -1301 -846 -2749 -961 -4267 -35 -466 -41
-624 -47 -1175 -8 -817 21 -1477 103 -2295 391 -3921 1880 -8148 3984 -11309
356 -535 1158 -1636 1661 -2281 729 -934 1387 -1641 2009 -2160 770 -641 1584
-1044 2380 -1179 642 -108 1396 -64 2125 124 442 115 817 251 1620 590 971
410 1374 555 1930 694 606 151 1132 218 1805 228 1165 18 2073 -151 3155 -585
196 -79 331 -136 805 -342 1080 -469 1713 -642 2574 -701 222 -15 776 -6 946
15 779 99 1462 359 2165 823 437 289 774 571 1241 1037 398 398 642 673 1056
1190 532 663 1414 1897 1890 2641 620 972 1228 2123 1713 3250 217 502 429
1050 585 1510 88 261 170 527 170 553 0 12 -30 29 -98 56 -147 60 -563 271
-777 393 -1275 733 -2366 1723 -3161 2868 -366 526 -688 1128 -930 1738 -538
1351 -735 2961 -554 4512 221 1884 1021 3607 2350 5060 164 179 546 556 720
711 374 332 722 600 1146 884 123 83 224 153 224 156 0 20 -348 478 -519 684
-281 337 -734 803 -1040 1070 -963 839 -2037 1447 -3276 1853 -851 279 -1701
440 -2685 507 -206 15 -997 21 -1180 10z"/>
</g>
</svg>
